<svg width="120" height="50" viewBox="0 0 120 50" fill="none" xmlns="http://www.w3.org/2000/svg">
<g clip-path="url(#clip0)">
<path d="M12.821 30.3323C15.3715 30.3323 17.4391 28.2569 17.4391 25.6967C17.4391 23.1366 15.3715 21.0612 12.821 21.0612C10.2704 21.0612 8.20285 23.1366 8.20285 25.6967C8.20285 28.2569 10.2704 30.3323 12.821 30.3323Z" fill="#E53489"/>
<path d="M117.324 32.9482C115.922 34.7739 114.337 36.2202 112.47 37.7264C110.497 39.3211 107.834 41.3978 105.586 42.5503C105.618 42.4219 106.081 41.2438 106.075 41.2637C108.369 35.3445 110.335 23.5116 101.497 23.0752C95.9637 23.2207 96.7225 33.0252 86.5598 39.4551C83.8685 41.6774 79.8898 42.7214 77.6646 39.2954C77.548 39.1299 77.5651 38.8989 77.71 38.762C81.2994 35.3502 84.5051 31.5904 86.304 26.7522C86.9662 24.975 88.569 20.562 86.5285 19.1328C79.1935 17.1445 73.6063 27.7963 72.2479 34.1007C71.8671 35.3131 71.9324 36.8221 71.5374 38.0602C70.1164 39.0872 68.7807 40.7759 67.1438 41.4292C65.899 41.8314 65.0294 40.5819 64.4695 39.6177C61.9203 35.0934 63.1367 29.6021 64.4752 24.6327C65.2908 21.6175 73.3193 0.484952 69.9004 0C68.6102 0.0627585 67.5274 0.476394 65.9814 3.14078C63.9409 6.47839 62.3637 10.1555 61.3349 13.9952C61.3349 13.9952 60.5107 16.9505 59.6923 21.1867C59.1921 21.4206 58.0724 21.9683 55.5345 23.5088C46.0653 29.2626 33.072 48.7605 30.0056 39.0044C29.7839 38.0345 29.315 36.9676 29.4202 35.9749C30.844 33.6699 32.0717 31.2309 33.1658 28.8005C36.6898 20.3281 41.5154 5.77664 40.1995 1.61746C39.0827 -1.5547 35.715 1.10113 34.3253 2.53031C26.9704 11.345 25.0464 24.8153 24.3871 36.1632C21.8209 39.0501 16.6344 41.9541 12.7722 41.4862C9.54946 40.5334 12.1697 33.8782 7.67947 36.0833C6.36651 36.8992 5.57077 37.6152 4.01624 39.0187C2.67486 40.2938 -0.357471 42.0739 0.0347135 45.6426C0.364376 47.5082 2.07237 46.1332 2.70896 45.3002C8.24217 37.7721 4.51074 46.5183 9.00097 49.0943C14.1562 50.5235 21.423 43.8511 25.1971 40.465C25.4159 40.251 25.7853 40.3766 25.8223 40.6875C27.391 53.4018 31.2447 50.977 41.7313 41.7687C42.0098 41.5233 42.4276 41.7772 42.348 42.1509C40.6997 49.2826 44.7949 51.2423 50.0184 47.2771C53.1274 45.2575 55.4408 42.2336 57.4017 39.0472C57.5978 38.7363 58.061 38.8532 58.0923 39.2241C58.4077 41.6945 58.9164 44.8524 60.3942 47.0575C60.974 47.9218 61.7015 48.6407 62.6251 49.1143C66.24 50.1327 69.0365 45.8137 71.7647 44.0137C71.9637 43.8454 72.2621 43.931 72.353 44.182C78.7104 58.9417 94.9889 38.374 98.8056 30.843C101.164 30.6005 103.196 33.5273 103.401 35.8465C103.753 39.8488 100.533 43.3547 101.258 47.4255C101.943 51.268 106.087 49.0971 110.048 45.8765C114.03 42.6387 120.057 38.4082 119.995 32.6059C119.961 30.9742 117.963 32.1152 117.324 32.9482ZM29.1274 27.8334C29.3036 23.6913 29.6276 23.4175 30.6876 19.4466C31.1708 17.6152 32.6997 13.5787 34.1832 11.3679C35.7463 9.04008 37.5424 8.76908 36.8461 12.0896C36.3686 14.346 28.9797 31.288 29.1274 27.8334ZM57.3534 33.4047C54.9264 37.1359 51.104 42.0482 47.563 41.5119C46.4688 41.3465 47.023 39.11 47.2845 38.083C48.4099 33.6585 51.5189 29.7675 58.7715 26.3529C58.7914 26.3443 58.8084 26.3386 58.8283 26.3329C58.5896 28.0302 58.3907 29.8017 58.2599 31.5875C57.9814 32.2921 57.6717 32.9311 57.3534 33.4047ZM82.5555 27.1887C82.6464 27.029 82.6095 27.0803 82.5555 27.1887V27.1887ZM78.0539 28.5894C77.8379 28.8033 77.963 28.6864 78.0539 28.5894V28.5894ZM76.5789 31.7187C76.8148 30.5263 77.3605 29.1884 78.2471 28.4011C79.0486 27.6879 83.3228 25.3801 82.4077 27.4312C82.2798 27.6337 82.0212 28.0531 82.0241 28.0502C81.467 28.7719 75.6013 37.2215 76.5789 31.7187Z" fill="#E53489"/>
</g>
<defs>
<clipPath id="clip0">
<rect width="120" height="49.4737" fill="white"/>
</clipPath>
</defs>
</svg>
