<svg width="45" height="32" fill="none" xmlns="http://www.w3.org/2000/svg"><g clip-path="url(#lyll-logo_svg__a)"><path d="M23.906 7.78h-3.328a.602.602 0 0 0-.43.183.633.633 0 0 0-.179.441v8.01c0 1.699-1.202 2.763-2.502 2.763-2.11 0-2.274-1.23-2.274-3.027V8.404a.632.632 0 0 0-.178-.441.602.602 0 0 0-.431-.183h-3.327a.602.602 0 0 0-.431.183.632.632 0 0 0-.178.441v8.114c0 3.36 1.491 4.893 4.222 5.327 0 0 3.145.346 5.197-.5v3.162c0 2.565-.682 4.129-2.6 4.129-1.233 0-1.948-.624-1.948-1.929 0-1.304.584-2.397 1.48-3.299a15.453 15.453 0 0 1-3.654-.206c-1.105 1.202-1.827 2.634-1.827 4.335 0 2.73 1.827 4.463 5.422 4.463 4.387 0 6.79-2.531 7.276-7.025.199-1.534.3-3.08.305-4.628V8.404a.637.637 0 0 0-.18-.444.608.608 0 0 0-.435-.18Z" fill="#69C0B7"></path><path d="M16.998 23.406a11.285 11.285 0 0 1 3.069-2.048c-2.052.846-5.197.5-5.197.5-.547.403-1.057.857-1.522 1.357a15.45 15.45 0 0 0 3.65.19Z" fill="#52958F"></path><path d="M1 17.448V.624C1 .46 1.064.3 1.178.183A.601.601 0 0 1 1.608 0h3.298c.161 0 .316.066.43.183a.632.632 0 0 1 .179.441v16.79c0 1.832.423 2.596 1.625 2.596.48-.02.952-.125 1.395-.312a.594.594 0 0 1 .669.176.629.629 0 0 1 .12.217l.626 1.994a.639.639 0 0 1-.018.43.618.618 0 0 1-.286.316c-1.023.562-2.475.812-3.711.812C1.277 23.64 1 20.543 1 17.448ZM27.118 17.448V.624c0-.165.064-.324.178-.441a.601.601 0 0 1 .43-.183h3.297c.162 0 .317.066.431.183a.632.632 0 0 1 .178.441v16.79c0 1.832.42 2.596 1.623 2.596.48-.019.953-.125 1.397-.312a.594.594 0 0 1 .67.176.63.63 0 0 1 .119.217l.627 1.994a.639.639 0 0 1-.018.43.618.618 0 0 1-.286.316c-1.023.562-2.479.812-3.715.812-4.673-.003-4.931-3.1-4.931-6.195ZM37.02 17.448V.624c0-.165.065-.324.18-.441A.601.601 0 0 1 37.63 0h3.297c.161 0 .316.066.43.183a.632.632 0 0 1 .179.441v16.79c0 1.832.423 2.596 1.625 2.596a3.98 3.98 0 0 0 1.395-.312.594.594 0 0 1 .668.176.63.63 0 0 1 .12.217l.627 1.994a.639.639 0 0 1-.018.43.618.618 0 0 1-.286.316c-1.02.562-2.475.812-3.711.812-4.673-.003-4.935-3.1-4.935-6.195Z" fill="#69C0B7"></path></g><defs><clipPath id="lyll-logo_svg__a"><path fill="#fff" d="M0 0h45v32H0z"></path></clipPath></defs></svg>